<svg width="28" height="28" viewBox="0 0 28 28" fill="none" xmlns="http://www.w3.org/2000/svg">
<path d="M24.8535 20.6992C25.4882 20.6997 26.0028 21.2149 26.0029 21.8496C26.0029 22.4845 25.4883 22.9996 24.8535 23H8.05664C7.42151 23 6.90625 22.4847 6.90625 21.8496C6.90642 21.2146 7.42162 20.6992 8.05664 20.6992H24.8535Z" fill="#3B3B3B"/>
<path d="M13.0156 5C13.6508 5 14.166 5.51526 14.166 6.15039C14.1659 6.78538 13.6507 7.30078 13.0156 7.30078H9.2334V14.9355C9.23324 15.5705 8.71804 16.0859 8.08301 16.0859C7.44807 16.0858 6.93278 15.5705 6.93262 14.9355V7.30078H3.15039C2.51542 7.30072 2.00016 6.78534 2 6.15039C2 5.5153 2.51532 5.00007 3.15039 5H13.0156Z" fill="#3B3B3B"/>
<path d="M24.8535 13.8711C25.4882 13.8715 26.0039 14.3867 26.0039 15.0215C26.0039 15.6563 25.4883 16.1714 24.8535 16.1719H14.0029C13.3678 16.1719 12.8525 15.6566 12.8525 15.0215C12.8526 14.3864 13.3678 13.8711 14.0029 13.8711H24.8535Z" fill="#3B3B3B"/>
<path d="M24.8535 7C25.4882 7.00049 26.0039 7.5156 26.0039 8.15039C26.0037 8.78508 25.4881 9.30029 24.8535 9.30078H17.9492C17.3142 9.30078 16.799 8.78539 16.7988 8.15039C16.7989 7.5153 17.3141 7 17.9492 7H24.8535Z" fill="#3B3B3B"/>
</svg>
