<svg width="24" height="24" viewBox="0 0 24 24" fill="none" xmlns="http://www.w3.org/2000/svg">
<path d="M16.2355 11.5326C16.6835 11.2099 17.3091 11.3113 17.632 11.7591C19.2119 13.9517 19.3959 16.4682 18.3322 18.4947C17.2712 20.5155 15.0609 21.8797 12.1994 21.9957C7.25625 22.1959 4.7727 18.1473 5.01677 15.4174C5.13246 14.1243 5.71019 13.2488 6.4572 12.7162C7.16356 12.2127 7.94164 12.0707 8.43474 12.0511C9.65497 12.003 10.5234 12.4751 11.0763 12.9799C11.3455 13.2257 11.5363 13.4748 11.6613 13.6654C11.7241 13.7613 11.7719 13.8449 11.8058 13.9086C11.8228 13.9404 11.8364 13.968 11.8468 13.9897C11.852 14.0004 11.8568 14.01 11.8605 14.018C11.8623 14.0218 11.864 14.0256 11.8654 14.0287C11.8662 14.0303 11.8677 14.0322 11.8683 14.0336V14.0356L11.8693 14.0365C11.8692 14.0371 11.8551 14.0442 11.1759 14.3442L11.8693 14.0365C12.0921 14.5416 11.8635 15.1328 11.3586 15.3559C10.8534 15.5789 10.2634 15.3502 10.0402 14.8451L10.0412 14.8471V14.8491C10.0327 14.8331 10.0156 14.8021 9.98943 14.7621C9.93599 14.6806 9.84906 14.5683 9.72771 14.4574C9.49905 14.2487 9.12705 14.0251 8.51384 14.0492C8.27702 14.0586 7.91454 14.1332 7.61833 14.3442C7.36263 14.5265 7.07436 14.8648 7.00896 15.5961C6.86479 17.2118 8.46853 20.1454 12.1183 19.9976C14.3785 19.906 15.8808 18.8599 16.5607 17.565C17.2375 16.2757 17.191 14.5696 16.009 12.9291C15.6861 12.4811 15.7876 11.8555 16.2355 11.5326Z" fill="#3B3B3B"/>
<path d="M13.9914 3.08114C14.0789 2.53608 14.5918 2.16491 15.1369 2.25202C15.682 2.33952 16.0542 2.85241 15.967 3.39756L15.0451 9.14772C14.9577 9.69297 14.4448 10.064 13.8996 9.97685C13.3543 9.88944 12.9831 9.37663 13.0705 8.83131L13.9914 3.08114Z" fill="#3B3B3B"/>
<path d="M8.54607 2.00298C9.09658 1.96231 9.57627 2.37543 9.61736 2.92586L9.98943 7.95726C10.0302 8.50796 9.61722 8.98768 9.06657 9.02858C8.5158 9.06934 8.03605 8.65552 7.99529 8.10472L7.62322 3.0743C7.58259 2.52374 7.99557 2.04396 8.54607 2.00298Z" fill="#3B3B3B"/>
</svg>
