<svg width="24" height="24" viewBox="0 0 24 24" fill="none" xmlns="http://www.w3.org/2000/svg">
<path d="M14 15.9996C14.5521 15.9996 14.9998 16.4475 15 16.9996C15 17.5519 14.5523 17.9996 14 17.9996H10C9.44772 17.9996 9 17.5519 9 16.9996C9.00023 16.4475 9.44786 15.9996 10 15.9996H14Z" fill="#3B3B3B"/>
<path fill-rule="evenodd" clip-rule="evenodd" d="M15.4297 1.99957C17.4017 1.99986 19.0007 3.59885 19.001 5.57086V18.4283C19.0009 20.4005 17.4018 21.9993 15.4297 21.9996H8.57227C6.59993 21.9995 5.00105 20.4006 5.00098 18.4283V5.57086C5.00128 3.59872 6.60007 1.99965 8.57227 1.99957H15.4297ZM8.57227 3.99957C7.70464 3.99965 7.00128 4.70329 7.00098 5.57086V18.4283C7.00105 19.296 7.7045 19.9995 8.57227 19.9996H15.4297C16.2973 19.9993 17.0009 19.2959 17.001 18.4283V5.57086C17.0007 4.70342 16.2971 3.99986 15.4297 3.99957H8.57227Z" fill="#3B3B3B"/>
</svg>
